<svg xmlns="http://www.w3.org/2000/svg" viewBox="0 0 64 64">
  <style>@media (prefers-color-scheme: dark) { .mark { fill: #51cf66; } .mark path[stroke] { stroke: #51cf66; } }</style>
  <defs>
    <clipPath id="tile"><path d="M17 18H47A11 11 0 0 1 58 29V47A11 11 0 0 1 47 58H17A11 11 0 0 1 6 47V29A11 11 0 0 1 17 18Z"/></clipPath>
    <mask id="eyes"><rect width="64" height="64" fill="#fff"/><circle cx="21" cy="15.5" r="4.2" fill="#000"/><circle cx="43" cy="15.5" r="4.2" fill="#000"/></mask>
  </defs>
  <g class="mark" fill="#2f9e44">
    <g mask="url(#eyes)">
      <circle cx="21" cy="16" r="9"/><circle cx="43" cy="16" r="9"/>
      <path clip-path="url(#tile)" d="M0 0H64V29.4L56 29.4L52 35.4L48 29.4L44 35.4L40 29.4L36 35.4L32 29.4L28 35.4L24 29.4L20 35.4L16 29.4L12 35.4L8 29.4L0 29.4Z"/>
    </g>
    <path d="M21 12.4v6.2M43 12.4v6.2" stroke="#2f9e44" stroke-width="2.4" stroke-linecap="round"/>
    <path clip-path="url(#tile)" d="M0 64H64V32.6L56 32.6L52 38.6L48 32.6L44 38.6L40 32.6L36 38.6L32 32.6L28 38.6L24 32.6L20 38.6L16 32.6L12 38.6L8 32.6L0 32.6Z"/>
  </g>
</svg>
