<svg xmlns="http://www.w3.org/2000/svg" viewBox="0 0 64 64">
  <style>@media (prefers-color-scheme: dark) { .mark { fill: #51cf66; } .mark path[stroke] { stroke: #51cf66; } }</style>
  <defs>
    <clipPath id="tile"><path d="M16 20H48A10 10 0 0 1 58 30V44A10 10 0 0 1 48 54H16A10 10 0 0 1 6 44V30A10 10 0 0 1 16 20Z"/></clipPath>
    <mask id="eyes"><rect width="64" height="64" fill="#fff"/><circle cx="21" cy="17.5" r="4" fill="#000"/><circle cx="43" cy="17.5" r="4" fill="#000"/><ellipse cx="28" cy="31" rx="1.4" ry="2.3" transform="rotate(-25 28 31)" fill="#000"/><ellipse cx="36" cy="31" rx="1.4" ry="2.3" transform="rotate(25 36 31)" fill="#000"/></mask>
  </defs>
  <g class="mark" fill="#2f9e44">
    <g mask="url(#eyes)">
      <circle cx="21" cy="18" r="8.5"/><circle cx="43" cy="18" r="8.5"/>
      <path clip-path="url(#tile)" d="M0 0H64V38.7L52 38.7L48 42.2L44 38.7L40 42.2L36 38.7L32 42.2L28 38.7L24 42.2L20 38.7L16 42.2L12 38.7L0 38.7Z"/>
    </g>
    <path d="M21 14.5v6M43 14.5v6" stroke="#2f9e44" stroke-width="2.2" stroke-linecap="round"/>
    <path clip-path="url(#tile)" d="M0 64H64V41.3L52 41.3L48 44.8L44 41.3L40 44.8L36 41.3L32 44.8L28 41.3L24 44.8L20 41.3L16 44.8L12 41.3L0 41.3Z"/>
  </g>
</svg>
